{"title":"Seven Samurai.1954.BDRE.720p.x264.DTS","uid":5160559,"size":9228470245,"categoryP":"video","categoryS":"hd___movies","magnet":"?xt=urn:btih:dc3aead851fe7334e3d8bec4f6e3ad96d734f29b&amp;dn=Seven+Samurai.1954.BDRE.720p.x264.DTS&amp;tr=udp%3A%2F%2Ftracker.openbittorrent.com%3A80&amp;tr=udp%3A%2F%2Fopen.demonii.com%3A1337&amp;tr=udp%3A%2F%2Ftracker.coppersurfer.tk%3A6969&amp;tr=udp%3A%2F%2Fexodus.desync.com%3A6969","seeders":0,"leechers":1,"uploader":"mfccorrea","files":4,"time":1258118152,"description":"Akira Kurosawa's epic tale concerns honor and duty during a time when the old traditional order is breaking down. The film opens with master samurai Kambei (Takashi Shimura) posing as a monk to save a kidnapped farmer's child. Impressed by his selflessness and bravery, a group of farmers begs him to defend their terrorized village from bandits. Kambei agrees, although there is no material gain or honor to be had in the endeavor. Soon he attracts a pair of followers: a young samurai named Katsushiro (Isao Kimura), who quickly becomes Kambei's disciple, and boisterous Kikuchiyo (Toshiro Mifune), who poses as a samurai but is later revealed to be the son of a farmer. Kambei assembles four other samurais, including Kyuzo (Seiji Miyaguchi), a master swordsman, to round out the group. Together they consolidate the village's defenses and shape the villagers into a militia, while the bandits loom menacingly nearby. Soon raids and counter-raids build to a final bloody heart-wrenching battle.\n\nIMDB: tt0047478\n\n   General\n      Complete name : Seven Samurai.1954.BDRE.720p.x264.DTS-MySiLU.mkv\n      Format : Matroska\n      File size : 8.59 GiB\n      Duration : 3h 26mn\n      Overall bit rate : 5 945 Kbps\n      Encoded date : UTC 2009-10-29 16:14:22\n      Writing application : mkvmerge v2.3.0 ('Freak U') built on Sep  8 2008 18:32:16\n      Writing library : libebml v0.7.7 + libmatroska v0.8.1\n   Video #1\n      ID : 1\n      Format : AVC\n      Format/Info : Advanced Video Codec\n      Format profile : &lt;a class=&quot;__cf_email__&quot; href=&quot;/cdn-cgi/l/email-protection&quot; data-cfemail=&quot;bcf4d5dbd4fcf088928d&quot;&gt;[email&amp;#160;protected]&lt;/a&gt;&lt;script cf-hash='f9e31' type=&quot;text/javascript&quot;&gt;\n/* &lt;![CDATA[ */!function(){try{var t=&quot;currentScript&quot;in document?document.currentScript:function(){for(var t=document.getElementsByTagName(&quot;script&quot;),e=t.length;e--;)if(t[e].getAttribute(&quot;cf-hash&quot;))return t[e]}();if(t&amp;&amp;t.previousSibling){var e,r,n,i,c=t.previousSibling,a=c.getAttribute(&quot;data-cfemail&quot;);if(a){for(e=&quot;&quot;,r=parseInt(a.substr(0,2),16),n=2;a.length-n;n+=2)i=parseInt(a.substr(n,2),16)^r,e+=String.fromCharCode(i);e=document.createTextNode(e),c.parentNode.replaceChild(e,c)}}}catch(u){}}();/* ]]&gt; */&lt;/script&gt;\n      Format settings, CABAC : Yes\n      Format settings, ReFrames : 8 frames\n      Muxing mode : Container profile=&lt;a class=&quot;__cf_email__&quot; href=&quot;/cdn-cgi/l/email-protection&quot; data-cfemail=&quot;c194afaaafaeb6af81f5eff0&quot;&gt;[email&amp;#160;protected]&lt;/a&gt;&lt;script cf-hash='f9e31' type=&quot;text/javascript&quot;&gt;\n/* &lt;![CDATA[ */!function(){try{var t=&quot;currentScript&quot;in document?document.currentScript:function(){for(var t=document.getElementsByTagName(&quot;script&quot;),e=t.length;e--;)if(t[e].getAttribute(&quot;cf-hash&quot;))return t[e]}();if(t&amp;&amp;t.previousSibling){var e,r,n,i,c=t.previousSibling,a=c.getAttribute(&quot;data-cfemail&quot;);if(a){for(e=&quot;&quot;,r=parseInt(a.substr(0,2),16),n=2;a.length-n;n+=2)i=parseInt(a.substr(n,2),16)^r,e+=String.fromCharCode(i);e=document.createTextNode(e),c.parentNode.replaceChild(e,c)}}}catch(u){}}();/* ]]&gt; */&lt;/script&gt;\n      Codec ID : V_MPEG4/ISO/AVC\n      Duration : 3h 26mn\n      Bit rate : 4 317 Kbps\n      Nominal bit rate : 4 431 Kbps\n      Width : 964 pixels\n      Height : 720 pixels\n      Display aspect ratio : 4:3\n      Frame rate : 23.976 fps\n      Resolution : 24 bits\n      Colorimetry : 4:2:0\n      Scan type : Progressive\n      Bits/(Pixel*Frame) : 0.259\n      Stream size : 6.23 GiB (73%)\n      Writing library : x264 core 75 r1251 e553a4c\n   Audio #2\n      ID : 2\n      Format : DTS\n      Format/Info : Digital Theater Systems\n      Codec ID : A_DTS\n      Duration : 3h 26mn\n      Bit rate mode : Constant\n      Bit rate : 1 510 Kbps\n      Channel(s) : 6 channels\n      Channel positions : Front: L C R, Surround: L R, LFE\n      Sampling rate : 48.0 KHz\n      Resolution : 24 bits\n      Stream size : 2.18 GiB (25%)\n      Language : Japanese\n\nJapanese audio; English and Portuguese subtitles","torrent":{"xt":"urn:btih:dc3aead851fe7334e3d8bec4f6e3ad96d734f29b","amp;dn":"Seven+Samurai.1954.BDRE.720p.x264.DTS","amp;tr":["udp%3A%2F%2Ftracker.openbittorrent.com%3A80","udp%3A%2F%2Fopen.demonii.com%3A1337","udp%3A%2F%2Ftracker.coppersurfer.tk%3A6969","udp%3A%2F%2Fexodus.desync.com%3A6969"],"infoHash":"dc3aead851fe7334e3d8bec4f6e3ad96d734f29b","infoHashBuffer":{"type":"Buffer","data":[220,58,234,216,81,254,115,52,227,216,190,196,246,227,173,150,215,52,242,155]},"announce":[],"urlList":[]}}